<svg width="48" height="48" viewBox="0 0 48 48" fill="none" xmlns="http://www.w3.org/2000/svg">
<g clip-path="url(#clip0_4_84)">
<path d="M15.0817 19.8444H10.5526C13.8677 11.0195 18.6771 4.66927 22.9728 0.607015C23.5869 0.0262706 24.4047 0.202345 24.7471 0.373552C24.8872 0.482501 25.3168 0.868493 25.9144 1.54087C21.1518 7.6576 18.3035 12.0934 15.0817 19.8444Z" fill="black"/>
<path d="M29.4164 1.72764C29.0428 2.19456 22.3658 9.89884 18.1168 19.8444H20.5448C24.2802 19.8444 29.6965 23.9066 29.6965 28.9494V47.1129C29.6965 47.5985 29.4164 47.9066 29.2763 48H42.8638C43.6109 48 43.9845 47.2529 44.0778 46.8794C44 45.7121 43.8464 42.5403 43.5175 39.2218C43.0039 34.0389 37.9611 28.8006 34.3658 27.5487C33.1785 27.1352 30.3502 25.6809 30.4903 24.2802C30.6304 22.8794 31.8291 22.8006 32.4981 23.1129C33.1985 23.4397 33.8522 24.7471 35.7666 24.7471H39.3152L41.6031 26.2413H45.7588C46.6553 26.2413 47.0039 25.5253 47.0662 25.1673L47.9066 18.7704C47.8911 18.537 47.7292 17.9767 47.2062 17.6031C46.6833 17.2296 39.1751 11.0662 35.4864 8.03114C35.5642 7.96888 35.7666 7.4148 35.9533 5.69651C36.1868 3.54865 34.5992 1.86771 33.0584 0.747091C31.8257 -0.149407 30.8016 0.280165 30.4436 0.607013C30.4592 0.607014 30.1921 0.758028 29.4164 1.72764Z" fill="black"/>
<path d="M10.8327 40.4358C7.76964 40.4358 5.27625 36.9339 4.9494 35.5331C6.02333 35.7665 7.42179 35.7821 7.91984 35.7665H26.9416V39.0817C26.9416 39.642 26.4747 40.4358 25.4475 40.4358H10.8327Z" fill="black"/>
<path d="M15.3618 47.9533C12.2988 47.9533 9.80542 44.4514 9.47858 43.0506C10.5525 43.2841 11.951 43.2996 12.449 43.2841H26.9416V46.5992C26.9416 47.1595 26.4747 47.9533 25.4474 47.9533H15.3618Z" fill="black"/>
<path d="M0 24.0934C0 23.3198 0.62715 22.6926 1.40078 22.6926H19.8911C23.7592 22.6926 26.8949 25.8284 26.8949 29.6965V31.5642C26.8949 32.3379 26.2678 32.965 25.4942 32.965H7.00389C3.13574 32.965 0 29.8292 0 25.9611V24.0934Z" fill="black"/>
</g>
<defs>
<clipPath id="clip0_4_84">
<rect width="48" height="48" fill="white"/>
</clipPath>
</defs>
</svg>
